<svg width="" height="" viewBox="0 0 36 37" fill="none" xmlns="http://www.w3.org/2000/svg">
<path d="M9.05631 27.7813C8.77506 27.7251 8.55006 27.6688 8.26881 27.5563C7.98756 27.4438 7.76256 27.3876 7.53756 27.2751C7.03131 27.0501 6.58131 26.7688 6.13131 26.4313C5.23131 25.8126 4.50006 24.9688 3.93756 23.9563C3.37506 23.0001 3.03756 21.8751 2.98131 20.8063C2.92506 20.2438 2.98131 19.7376 3.03756 19.1751C3.09381 18.8938 3.15006 18.6688 3.20631 18.3876C3.26256 18.1063 3.37506 17.8813 3.43131 17.6001L3.48756 18.3876C3.48756 18.6688 3.54381 18.8938 3.60006 19.1751C3.65631 19.6813 3.76881 20.1876 3.88131 20.6376C4.10631 21.5938 4.44381 22.4938 4.95006 23.3376C5.45631 24.1813 6.01881 24.9688 6.75006 25.7001C7.08756 26.0376 7.48131 26.3751 7.87506 26.7126C8.04381 26.8813 8.26881 27.0501 8.49381 27.2188L9.05631 27.7813Z" fill="#66BCE8"/>
<path d="M8.8875 29.8063C8.71875 29.9188 8.49375 29.9751 8.26875 30.0313C8.04375 30.0876 7.875 30.1438 7.65 30.1438C7.25625 30.2001 6.80625 30.2563 6.35625 30.2001C5.5125 30.1438 4.6125 29.9188 3.88125 29.5251C3.09375 29.1313 2.41875 28.5126 1.96875 27.7813C1.74375 27.4438 1.51875 27.0501 1.35 26.6563C1.29375 26.4876 1.2375 26.2626 1.18125 26.0376C1.18125 25.8688 1.125 25.7001 1.125 25.4751C1.29375 25.6438 1.40625 25.8126 1.51875 25.9251C1.6875 26.0938 1.8 26.2626 1.9125 26.3751C2.19375 26.6563 2.41875 26.9376 2.7 27.1626C3.2625 27.6688 3.825 28.1188 4.5 28.4563C5.11875 28.7938 5.85 29.0751 6.525 29.3001C6.8625 29.4126 7.25625 29.4688 7.65 29.5813C7.81875 29.6376 8.04375 29.6376 8.2125 29.6938C8.49375 29.7501 8.6625 29.7501 8.8875 29.8063Z" fill="#66BCE8"/>
<path d="M21.6001 2.46875C21.8813 2.525 22.1063 2.6375 22.3876 2.75C22.6688 2.8625 22.8938 2.975 23.1188 3.0875C23.6251 3.36875 24.0751 3.65 24.5251 3.9875C25.4251 4.6625 26.1563 5.5625 26.6626 6.575C27.1688 7.5875 27.4501 8.7125 27.4501 9.78125C27.4501 10.3438 27.3938 10.85 27.2813 11.4125C27.2251 11.6937 27.1688 11.9187 27.0563 12.2C26.9438 12.4812 26.8876 12.7063 26.7751 12.9313L26.7188 12.1438C26.7188 11.8625 26.7188 11.6375 26.6626 11.3562L26.4938 9.8375C26.3251 8.88125 25.9876 7.925 25.5376 7.025C25.0876 6.125 24.5251 5.3375 23.8501 4.60625C23.5126 4.2125 23.1188 3.875 22.7813 3.48125C22.6126 3.3125 22.3876 3.14375 22.1626 2.975L21.6001 2.46875Z" fill="#66BCE8"/>
<path d="M26.4937 2.2439C26.7187 2.30015 26.8874 2.3564 27.0562 2.4689C27.2249 2.52515 27.4499 2.63765 27.6187 2.75015C27.9562 2.97515 28.2937 3.20015 28.6312 3.4814C29.2499 4.0439 29.7562 4.7189 30.0374 5.5064C30.3749 6.2939 30.4874 7.13765 30.3749 7.9814C30.3187 8.37515 30.2062 8.7689 30.0937 9.16265C30.0374 9.3314 29.9249 9.5564 29.8687 9.72515C29.7562 9.8939 29.6999 10.0626 29.5312 10.2314V9.1064C29.5312 8.71265 29.4749 8.37515 29.4749 8.03765C29.3624 7.3064 29.2499 6.6314 28.9687 6.01265C28.6874 5.33765 28.3499 4.77515 27.9562 4.1564C27.7312 3.87515 27.5062 3.53765 27.2812 3.2564C27.1687 3.08765 27.0562 2.97515 26.8874 2.8064C26.7749 2.52515 26.6062 2.3564 26.4937 2.2439Z" fill="#66BCE8"/>
<path d="M5.62501 10.6251C4.5 11.1313 4.10625 12.4813 4.6125 13.6063L11.7 28.4001L15.6375 26.5438L8.55 11.6938C8.04375 10.5688 6.75001 10.0626 5.62501 10.6251Z" fill="#FFDD67"/>
<path d="M24.2436 22.3813L28.4061 20.4126L20.3061 3.53755C19.7436 2.41255 18.3936 1.9063 17.2124 2.4688C16.0874 3.0313 15.5811 4.3813 16.1436 5.56255L24.2436 22.3813Z" fill="#FFDD67"/>
<path d="M17.2687 2.41241C17.1562 2.46866 17.0437 2.52491 16.9312 2.63741C17.9999 2.35616 19.1249 2.86241 19.6312 3.87491L27.7312 20.7499L28.4624 20.4124L20.3624 3.53741C19.7999 2.35616 18.4499 1.84991 17.2687 2.41241Z" fill="#EBA352"/>
<path d="M15.6375 26.4876L19.9687 24.4063L11.7 7.19382C11.1375 6.01257 9.67496 5.45007 8.49371 6.01257C7.31246 6.57507 6.80621 8.03757 7.36871 9.21882L15.6375 26.4876Z" fill="#FFDD67"/>
<path d="M8.49375 6.0687C8.38125 6.12495 8.26875 6.1812 8.15625 6.2937C9.225 6.01245 10.4625 6.5187 10.9687 7.58745L16.0875 18.3312L17.325 19.0624L11.7 7.24995C11.1375 6.01245 9.73125 5.5062 8.49375 6.0687Z" fill="#EBA352"/>
<path d="M19.2937 23.0563L23.625 20.9751L15.3562 3.76257C14.7937 2.58132 13.3312 2.01882 12.15 2.63757C10.9687 3.20007 10.4625 4.66257 11.025 5.84382L19.2937 23.0563Z" fill="#FFDD67"/>
<path d="M12.15 2.58139C12.0375 2.63764 11.925 2.75014 11.8125 2.80639C12.8813 2.52514 14.1188 3.03139 14.625 4.10014L20.4187 16.2501L21.6562 16.9814L15.3562 3.76264C14.7937 2.52514 13.3313 2.01889 12.15 2.58139Z" fill="#EBA352"/>
<path d="M5.6251 10.6251C5.5126 10.6813 5.4001 10.7376 5.2876 10.8501C6.3001 10.5688 7.36885 11.0751 7.81885 12.0876L12.0376 20.9188L13.2751 21.6501L8.5501 11.7501C8.04385 10.5688 6.7501 10.0626 5.6251 10.6251Z" fill="#EBA352"/>
<path d="M34.1999 8.9374C32.6812 7.75615 30.2062 9.0499 28.9687 13.0999C28.1249 15.9124 28.0124 16.7561 26.2124 17.5999L25.1999 15.5186C25.1999 15.5186 9.22494 23.2249 9.84369 24.4624C9.84369 24.4624 11.7562 30.4249 15.0187 33.1811C19.8562 37.3436 31.1624 32.8999 31.6687 22.1561C31.9499 15.9124 35.8312 10.2311 34.1999 8.9374Z" fill="#FFDD67"/>
<path d="M34.2001 8.93745C33.9188 8.71245 33.5813 8.59995 33.2438 8.5437C33.3001 8.59995 33.4126 8.59995 33.4688 8.6562C35.1563 9.94995 33.4126 12.9312 32.4563 15.6312C31.6688 17.7687 30.9938 19.9625 31.1063 22.1C31.5563 31.4375 22.1626 35.8812 16.5376 34.1937C22.0501 36.4999 32.2876 32.1124 31.8376 22.3812C31.7251 20.2437 32.3438 18.1624 33.1876 15.9124C34.0876 13.2125 35.8313 10.2312 34.2001 8.93745Z" fill="#EBA352"/>
<path d="M26.7186 17.375C23.2311 17.7687 18.1124 22.775 21.7124 28.2312C19.0686 22.7187 23.3999 19.0063 26.1561 17.7125C26.4374 17.4875 26.7186 17.375 26.7186 17.375Z" fill="#EBA352"/>
</svg>
