<svg width="29" height="27" viewBox="0 0 29 27" fill="none" xmlns="http://www.w3.org/2000/svg">
<path id="Vector" d="M14.0873 21.1586C15.8279 21.1586 17.3077 20.5497 18.5265 19.3317C19.7445 18.1128 20.3535 16.6331 20.3535 14.8925C20.3535 13.1519 19.7445 11.6722 18.5265 10.4533C17.3077 9.23535 15.8279 8.62638 14.0873 8.62638C12.3467 8.62638 10.867 9.23535 9.64812 10.4533C8.43017 11.6722 7.8212 13.1519 7.8212 14.8925C7.8212 16.6331 8.43017 18.1128 9.64812 19.3317C10.867 20.5497 12.3467 21.1586 14.0873 21.1586ZM14.0873 18.3737C13.1126 18.3737 12.2887 18.0372 11.6157 17.3641C10.9427 16.6911 10.6061 15.8672 10.6061 14.8925C10.6061 13.9178 10.9427 13.0939 11.6157 12.4209C12.2887 11.7478 13.1126 11.4113 14.0873 11.4113C15.0621 11.4113 15.8859 11.7478 16.559 12.4209C17.232 13.0939 17.5685 13.9178 17.5685 14.8925C17.5685 15.8672 17.232 16.6911 16.559 17.3641C15.8859 18.0372 15.0621 18.3737 14.0873 18.3737ZM2.94754 26.0323C2.18168 26.0323 1.52629 25.7598 0.981372 25.2149C0.435522 24.6691 0.162598 24.0132 0.162598 23.2473V6.53767C0.162598 5.77181 0.435522 5.11641 0.981372 4.57149C1.52629 4.02564 2.18168 3.75272 2.94754 3.75272H7.33383L9.90991 0.967773H18.2647L20.8408 3.75272H25.2271C25.993 3.75272 26.6488 4.02564 27.1947 4.57149C27.7396 5.11641 28.0121 5.77181 28.0121 6.53767V23.2473C28.0121 24.0132 27.7396 24.6691 27.1947 25.2149C26.6488 25.7598 25.993 26.0323 25.2271 26.0323H2.94754ZM25.2271 23.2473V6.53767H19.5876L17.0463 3.75272H11.1283L8.58706 6.53767H2.94754V23.2473H25.2271Z" fill="#AF501A"/>
</svg>
