<svg width="28" height="27" viewBox="0 0 28 27" fill="none" xmlns="http://www.w3.org/2000/svg">
<g id="ph:chat-dots">
<path id="Vector" d="M23.0274 5.27832H4.93843C4.50229 5.27832 4.08402 5.45157 3.77562 5.75997C3.46723 6.06836 3.29397 6.48664 3.29397 6.92278V23.3673C3.29212 23.6808 3.38073 23.9881 3.54917 24.2524C3.71762 24.5168 3.95875 24.7269 4.24365 24.8576C4.46135 24.9587 4.69841 25.0113 4.93843 25.0118C5.32447 25.0109 5.6977 24.8732 5.99191 24.6233C5.99681 24.6201 6.0013 24.6163 6.00527 24.612L9.30651 21.7229H23.0274C23.4636 21.7229 23.8818 21.5496 24.1902 21.2412C24.4986 20.9328 24.6719 20.5146 24.6719 20.0784V6.92278C24.6719 6.48664 24.4986 6.06836 24.1902 5.75997C23.8818 5.45157 23.4636 5.27832 23.0274 5.27832ZM23.0274 20.0784H9.30651C8.91927 20.0782 8.54438 20.2147 8.24789 20.4638L8.23556 20.4751L4.93843 23.3673V6.92278H23.0274V20.0784ZM12.7496 13.5006C12.7496 13.2567 12.8219 13.0182 12.9574 12.8154C13.093 12.6126 13.2856 12.4545 13.511 12.3611C13.7363 12.2678 13.9843 12.2434 14.2235 12.291C14.4628 12.3385 14.6825 12.456 14.855 12.6285C15.0275 12.801 15.145 13.0207 15.1926 13.26C15.2402 13.4992 15.2157 13.7472 15.1224 13.9726C15.029 14.1979 14.871 14.3906 14.6681 14.5261C14.4653 14.6616 14.2269 14.7339 13.9829 14.7339C13.6558 14.7339 13.3421 14.604 13.1108 14.3727C12.8795 14.1414 12.7496 13.8277 12.7496 13.5006ZM8.22734 13.5006C8.22734 13.2567 8.29967 13.0182 8.43519 12.8154C8.57071 12.6126 8.76334 12.4545 8.9887 12.3611C9.21406 12.2678 9.46205 12.2434 9.70129 12.291C9.94054 12.3385 10.1603 12.456 10.3328 12.6285C10.5053 12.801 10.6227 13.0207 10.6703 13.26C10.7179 13.4992 10.6935 13.7472 10.6001 13.9726C10.5068 14.1979 10.3487 14.3906 10.1459 14.5261C9.94307 14.6616 9.70461 14.7339 9.46068 14.7339C9.13358 14.7339 8.81987 14.604 8.58858 14.3727C8.35728 14.1414 8.22734 13.8277 8.22734 13.5006ZM17.2718 13.5006C17.2718 13.2567 17.3442 13.0182 17.4797 12.8154C17.6152 12.6126 17.8078 12.4545 18.0332 12.3611C18.2586 12.2678 18.5065 12.2434 18.7458 12.291C18.985 12.3385 19.2048 12.456 19.3773 12.6285C19.5498 12.801 19.6672 13.0207 19.7148 13.26C19.7624 13.4992 19.738 13.7472 19.6446 13.9726C19.5513 14.1979 19.3932 14.3906 19.1904 14.5261C18.9876 14.6616 18.7491 14.7339 18.5052 14.7339C18.1781 14.7339 17.8644 14.604 17.6331 14.3727C17.4018 14.1414 17.2718 13.8277 17.2718 13.5006Z" fill="#FF7E20"/>
</g>
</svg>
