<svg width="127" height="31" viewBox="0 0 127 31" fill="none" xmlns="http://www.w3.org/2000/svg">
<path d="M0.512968 31V7.52607H6.88577V17.0165H7.20671L14.2672 7.52607H21.6945L13.7629 17.9793L21.8779 31H14.2672L8.99476 22.1973L6.88577 24.9481V31H0.512968ZM29.6835 31H22.8063L30.5546 7.52607H39.2656L47.0138 31H40.1367L35.0018 13.9906H34.8184L29.6835 31ZM28.3997 21.7388H41.3287V26.5069H28.3997V21.7388ZM69.5851 7.52607V31H64.2668L55.785 18.667H55.6475V31H49.2747V7.52607H54.6847L63.0289 19.8132H63.2123V7.52607H69.5851ZM72.5996 31V7.52607H82.7319C84.4741 7.52607 85.9985 7.86992 87.3052 8.55764C88.6119 9.24535 89.6281 10.212 90.3541 11.4575C91.08 12.703 91.4429 14.1587 91.4429 15.8245C91.4429 17.5055 91.0685 18.9612 90.3197 20.1914C89.5785 21.4217 88.5354 22.3692 87.1906 23.034C85.8534 23.6988 84.2907 24.0312 82.5027 24.0312H76.4508V19.0796H81.2189C81.9678 19.0796 82.6058 18.9497 83.1331 18.6899C83.668 18.4225 84.0768 18.0443 84.3595 17.5552C84.6499 17.0662 84.7951 16.4893 84.7951 15.8245C84.7951 15.152 84.6499 14.5789 84.3595 14.1052C84.0768 13.6238 83.668 13.257 83.1331 13.0048C82.6058 12.745 81.9678 12.6151 81.2189 12.6151H78.9724V31H72.5996ZM96.9475 31H90.0704L97.8186 7.52607H106.53L114.278 31H107.401L102.266 13.9906H102.082L96.9475 31ZM95.6638 21.7388H108.593V26.5069H95.6638V21.7388ZM122.912 7.52607V31H116.539V7.52607H122.912ZM116.126 5.46293C115.347 5.46293 114.686 5.20313 114.143 4.68352C113.601 4.16391 113.329 3.53733 113.329 2.80377C113.329 2.07021 113.601 1.44363 114.143 0.924024C114.686 0.404418 115.347 0.144615 116.126 0.144615C116.883 0.144615 117.528 0.404418 118.063 0.924024C118.606 1.44363 118.877 2.07021 118.877 2.80377C118.877 3.53733 118.606 4.16391 118.063 4.68352C117.528 5.20313 116.883 5.46293 116.126 5.46293ZM123.416 5.46293C122.636 5.46293 121.975 5.20313 121.433 4.68352C120.89 4.16391 120.619 3.53733 120.619 2.80377C120.619 2.07021 120.89 1.44363 121.433 0.924024C121.975 0.404418 122.636 0.144615 123.416 0.144615C124.172 0.144615 124.818 0.404418 125.353 0.924024C125.895 1.44363 126.167 2.07021 126.167 2.80377C126.167 3.53733 125.895 4.16391 125.353 4.68352C124.818 5.20313 124.172 5.46293 123.416 5.46293Z" fill="#FF7E20"/>
</svg>
