<svg width="6" height="20" viewBox="0 0 6 20" fill="none" xmlns="http://www.w3.org/2000/svg">
<path id="Vector" d="M3.00081 7.79981C2.71177 7.79981 2.42556 7.85674 2.15852 7.96735C1.89148 8.07796 1.64884 8.24008 1.44446 8.44446C1.24008 8.64885 1.07796 8.89148 0.967346 9.15852C0.856735 9.42556 0.799805 9.71177 0.799805 10.0008C0.799805 10.2898 0.856735 10.5761 0.967346 10.8431C1.07796 11.1101 1.24008 11.3528 1.44446 11.5571C1.64884 11.7615 1.89148 11.9237 2.15852 12.0343C2.42556 12.1449 2.71177 12.2018 3.00081 12.2018C3.58455 12.2017 4.14433 11.9697 4.557 11.5568C4.96967 11.1439 5.20144 10.584 5.2013 10.0003C5.20117 9.41656 4.96915 8.85678 4.55629 8.44411C4.14343 8.03144 3.58355 7.79967 2.9998 7.79981H3.00081ZM3.00081 5.1998C3.28971 5.19967 3.57577 5.14264 3.84263 5.03196C4.1095 4.92128 4.35195 4.75911 4.55615 4.55473C4.76034 4.35035 4.92228 4.10775 5.03272 3.84078C5.14316 3.57382 5.19994 3.28771 5.1998 2.99881C5.19967 2.7099 5.14264 2.42384 5.03196 2.15698C4.92127 1.89011 4.75911 1.64766 4.55473 1.44346C4.35035 1.23927 4.10775 1.07733 3.84078 0.966887C3.57382 0.856448 3.28771 0.799674 2.9988 0.799805C2.41533 0.80007 1.85586 1.03211 1.44346 1.44488C1.03107 1.85764 0.79954 2.41733 0.799805 3.0008C0.80007 3.58428 1.03211 4.14375 1.44488 4.55615C1.85764 4.96854 2.41733 5.20007 3.00081 5.1998ZM3.00081 14.7998C2.41706 14.7998 1.85723 15.0317 1.44446 15.4445C1.0317 15.8572 0.799805 16.4171 0.799805 17.0008C0.799805 17.5845 1.0317 18.1444 1.44446 18.5571C1.85723 18.9699 2.41706 19.2018 3.00081 19.2018C3.58455 19.2018 4.14438 18.9699 4.55715 18.5571C4.96991 18.1444 5.2018 17.5845 5.2018 17.0008C5.2018 16.4171 4.96991 15.8572 4.55715 15.4445C4.14438 15.0317 3.58455 14.7998 3.00081 14.7998Z" fill="black"/>
</svg>
