<svg width="24" height="24" viewBox="0 0 24 24" fill="none" xmlns="http://www.w3.org/2000/svg">
<g id="solar:chat-round-money-outline">
<path id="Vector" fill-rule="evenodd" clip-rule="evenodd" d="M12 2.75C9.54675 2.75 7.19398 3.72455 5.45927 5.45926C3.72456 7.19397 2.75001 9.54675 2.75001 12C2.75001 13.481 3.09801 14.879 3.71501 16.118C3.96301 16.616 4.05801 17.21 3.90201 17.795L3.30601 20.02C3.28098 20.1132 3.28093 20.2114 3.30586 20.3046C3.33078 20.3979 3.37981 20.4829 3.448 20.5512C3.5162 20.6195 3.60117 20.6687 3.69438 20.6937C3.78759 20.7188 3.88575 20.7189 3.97901 20.694L6.20601 20.098C6.76879 19.954 7.36481 20.0205 7.88201 20.285C9.1612 20.9218 10.5711 21.2522 12 21.25C14.4533 21.25 16.806 20.2754 18.5407 18.5407C20.2755 16.806 21.25 14.4533 21.25 12C21.25 9.54675 20.2755 7.19397 18.5407 5.45926C16.806 3.72455 14.4533 2.75 12 2.75ZM1.25001 12C1.25001 6.063 6.06301 1.25 12 1.25C17.937 1.25 22.75 6.063 22.75 12C22.75 17.937 17.937 22.75 12 22.75C10.282 22.75 8.65601 22.346 7.21301 21.628C7.02295 21.5268 6.80253 21.4984 6.59301 21.548L4.36701 22.143C2.84301 22.551 1.44901 21.157 1.85701 19.633L2.45301 17.407C2.50265 17.1975 2.47421 16.9771 2.37301 16.787C1.63246 15.3 1.248 13.6612 1.25001 12ZM12 7.25C12.1989 7.25 12.3897 7.32902 12.5303 7.46967C12.671 7.61032 12.75 7.80109 12.75 8V8.01C13.839 8.285 14.75 9.143 14.75 10.333C14.75 10.5319 14.671 10.7227 14.5303 10.8633C14.3897 11.004 14.1989 11.083 14 11.083C13.8011 11.083 13.6103 11.004 13.4697 10.8633C13.329 10.7227 13.25 10.5319 13.25 10.333C13.25 9.949 12.824 9.417 12 9.417C11.176 9.417 10.75 9.949 10.75 10.333C10.75 10.717 11.176 11.25 12 11.25C13.385 11.25 14.75 12.21 14.75 13.667C14.75 14.857 13.839 15.716 12.75 15.99V16C12.75 16.1989 12.671 16.3897 12.5303 16.5303C12.3897 16.671 12.1989 16.75 12 16.75C11.8011 16.75 11.6103 16.671 11.4697 16.5303C11.329 16.3897 11.25 16.1989 11.25 16V15.99C10.161 15.716 9.25001 14.857 9.25001 13.667C9.25001 13.4681 9.32903 13.2773 9.46968 13.1367C9.61033 12.996 9.8011 12.917 10 12.917C10.1989 12.917 10.3897 12.996 10.5303 13.1367C10.671 13.2773 10.75 13.4681 10.75 13.667C10.75 14.051 11.176 14.583 12 14.583C12.824 14.583 13.25 14.051 13.25 13.667C13.25 13.283 12.824 12.75 12 12.75C10.615 12.75 9.25001 11.79 9.25001 10.333C9.25001 9.143 10.161 8.285 11.25 8.01V8C11.25 7.80109 11.329 7.61032 11.4697 7.46967C11.6103 7.32902 11.8011 7.25 12 7.25Z" fill="black"/>
</g>
</svg>
