<svg width="33" height="33" viewBox="0 0 33 33" fill="none" xmlns="http://www.w3.org/2000/svg">
<g id="material-symbols:edit-outline-rounded">
<path id="Vector" d="M7.16667 26.1335H9.03333L20.5333 14.6335L18.6667 12.7668L7.16667 24.2668V26.1335ZM26.2333 12.7001L20.5667 7.10013L22.4333 5.23346C22.9444 4.72235 23.5724 4.4668 24.3173 4.4668C25.0613 4.4668 25.6889 4.72235 26.2 5.23346L28.0667 7.10013C28.5778 7.61124 28.8444 8.22813 28.8667 8.9508C28.8889 9.67257 28.6444 10.289 28.1333 10.8001L26.2333 12.7001ZM5.83333 28.8001C5.45556 28.8001 5.13911 28.6721 4.884 28.4161C4.628 28.161 4.5 27.8446 4.5 27.4668V23.7001C4.5 23.5224 4.53333 23.3504 4.6 23.1841C4.66667 23.017 4.76667 22.8668 4.9 22.7335L18.6333 9.00013L24.3 14.6668L10.5667 28.4001C10.4333 28.5335 10.2836 28.6335 10.1173 28.7001C9.95022 28.7668 9.77778 28.8001 9.6 28.8001H5.83333ZM19.6 13.7001L18.6667 12.7668L20.5333 14.6335L19.6 13.7001Z" fill="black"/>
</g>
</svg>
